<?xml version="1.0" encoding="UTF-8" standalone="no"?><svg xmlns="http://www.w3.org/2000/svg" xmlns:xlink="http://www.w3.org/1999/xlink" contentScriptType="application/ecmascript" contentStyleType="text/css" height="1087px" preserveAspectRatio="none" style="width:1217px;height:1087px;" version="1.1" viewBox="0 0 1217 1087" width="1217px" zoomAndPan="magnify"><defs><filter height="300%" id="fefylkv7urtgt" width="300%" x="-1" y="-1"><feGaussianBlur result="blurOut" stdDeviation="2.0"/><feColorMatrix in="blurOut" result="blurOut2" type="matrix" values="0 0 0 0 0 0 0 0 0 0 0 0 0 0 0 0 0 0 .4 0"/><feOffset dx="4.0" dy="4.0" in="blurOut2" result="blurOut3"/><feBlend in="SourceGraphic" in2="blurOut3" mode="normal"/></filter></defs><g><!--cluster pbcpy.base--><polygon fill="#EEEEEE" filter="url(#fefylkv7urtgt)" points="22,81,119,81,126,103.2969,451,103.2969,451,505.5,22,505.5,22,81" style="stroke: #000000; stroke-width: 1.5;"/><line style="stroke: #000000; stroke-width: 1.5;" x1="22" x2="126" y1="103.2969" y2="103.2969"/><text fill="#000000" font-family="sans-serif" font-size="14" font-weight="bold" lengthAdjust="spacingAndGlyphs" textLength="91" x="26" y="95.9951">pbcpy.base</text><!--cluster pbcpy.grid--><polygon fill="#EEEEEE" filter="url(#fefylkv7urtgt)" points="475,355,565,355,572,377.2969,910,377.2969,910,716,475,716,475,355" style="stroke: #000000; stroke-width: 1.5;"/><line style="stroke: #000000; stroke-width: 1.5;" x1="475" x2="572" y1="377.2969" y2="377.2969"/><text fill="#000000" font-family="sans-serif" font-size="14" font-weight="bold" lengthAdjust="spacingAndGlyphs" textLength="84" x="479" y="369.9951">pbcpy.grid</text><!--cluster pbcpy.field--><polygon fill="#EEEEEE" filter="url(#fefylkv7urtgt)" points="700,740,793,740,800,762.2969,1195,762.2969,1195,1075,700,1075,700,740" style="stroke: #000000; stroke-width: 1.5;"/><line style="stroke: #000000; stroke-width: 1.5;" x1="700" x2="800" y1="762.2969" y2="762.2969"/><text fill="#000000" font-family="sans-serif" font-size="14" font-weight="bold" lengthAdjust="spacingAndGlyphs" textLength="87" x="704" y="754.9951">pbcpy.field</text><!--class BaseCell--><rect fill="#FEFECE" filter="url(#fefylkv7urtgt)" height="150.4375" id="BaseCell" style="stroke: #A80036; stroke-width: 1.5;" width="149" x="283.5" y="148"/><ellipse cx="327.75" cy="164" fill="#A9DCDF" rx="11" ry="11" style="stroke: #A80036; stroke-width: 1.0;"/><path d="M329.3281,165.8125 L325.2813,165.8125 L324.8906,166.7969 L325.2813,166.7969 C325.7344,166.7969 325.875,166.8281 326.0469,166.9531 C326.2656,167.125 326.3906,167.375 326.3906,167.6563 C326.3906,167.9375 326.25,168.2344 325.9844,168.375 C325.8594,168.4688 325.6406,168.5 325.2813,168.5 L323.0156,168.5 C322.2656,168.5 321.8906,168.2188 321.8906,167.6563 C321.8906,167.3594 322.0469,167.0781 322.2969,166.9219 C322.4531,166.8125 322.6094,166.7969 323.0313,166.7969 L325.6719,160.2813 L324.5938,160.2813 C324.1563,160.2813 323.9844,160.25 323.8125,160.1406 C323.5938,159.9688 323.4531,159.7188 323.4531,159.4375 C323.4531,159.1563 323.6094,158.875 323.8594,158.7031 C324.0156,158.6094 324.1406,158.5938 324.5938,158.5938 L328.2656,158.5938 L331.6563,166.7969 C332.125,166.7969 332.2813,166.8281 332.4531,166.9688 C332.6719,167.125 332.8125,167.375 332.8125,167.6563 C332.8125,167.9375 332.6563,168.2344 332.4063,168.375 C332.2656,168.4688 332.0469,168.5 331.6875,168.5 L329.3281,168.5 C328.9063,168.5 328.7031,168.4531 328.5625,168.3281 C328.3438,168.1719 328.2031,167.9219 328.2031,167.6563 C328.2031,167.3594 328.3594,167.0781 328.6094,166.9219 C328.7656,166.8125 328.875,166.7969 329.3281,166.7969 L329.7188,166.7969 Z M328.625,164.1094 L327.2969,160.8438 L325.9531,164.1094 Z "/><text fill="#000000" font-family="sans-serif" font-size="12" font-style="italic" lengthAdjust="spacingAndGlyphs" textLength="52" x="348.25" y="168.1543">BaseCell</text><line style="stroke: #A80036; stroke-width: 1.5;" x1="284.5" x2="431.5" y1="180" y2="180"/><polygon fill="none" points="294.5,186.9023,298.5,190.9023,294.5,194.9023,290.5,190.9023" style="stroke: #B38D22; stroke-width: 1.0;"/><text fill="#000000" font-family="sans-serif" font-size="11" lengthAdjust="spacingAndGlyphs" textLength="103" x="303.5" y="194.2104">_lattice : float[3,3]</text><polygon fill="none" points="294.5,199.707,298.5,203.707,294.5,207.707,290.5,203.707" style="stroke: #B38D22; stroke-width: 1.0;"/><text fill="#000000" font-family="sans-serif" font-size="11" lengthAdjust="spacingAndGlyphs" textLength="84" x="303.5" y="207.0151">_volume : float</text><polygon fill="none" points="294.5,212.5117,298.5,216.5117,294.5,220.5117,290.5,216.5117" style="stroke: #B38D22; stroke-width: 1.0;"/><text fill="#000000" font-family="sans-serif" font-size="11" lengthAdjust="spacingAndGlyphs" textLength="90" x="303.5" y="219.8198">_origin : float[3]</text><line style="stroke: #A80036; stroke-width: 1.5;" x1="284.5" x2="431.5" y1="226.4141" y2="226.4141"/><ellipse cx="294.5" cy="238.3164" fill="#84BE84" rx="3" ry="3" style="stroke: #038048; stroke-width: 1.0;"/><text fill="#000000" font-family="sans-serif" font-size="11" lengthAdjust="spacingAndGlyphs" textLength="123" x="303.5" y="240.6245">__init__(lattice, origin)</text><ellipse cx="294.5" cy="251.1211" fill="#84BE84" rx="3" ry="3" style="stroke: #038048; stroke-width: 1.0;"/><text fill="#000000" font-family="sans-serif" font-size="11" lengthAdjust="spacingAndGlyphs" textLength="76" x="303.5" y="253.4292">__eq__(other)</text><ellipse cx="294.5" cy="263.9258" fill="#84BE84" rx="3" ry="3" style="stroke: #038048; stroke-width: 1.0;"/><text fill="#000000" font-family="sans-serif" font-size="11" lengthAdjust="spacingAndGlyphs" textLength="105" x="303.5" y="266.2339">lattice() : float[3,3]</text><ellipse cx="294.5" cy="276.7305" fill="#84BE84" rx="3" ry="3" style="stroke: #038048; stroke-width: 1.0;"/><text fill="#000000" font-family="sans-serif" font-size="11" lengthAdjust="spacingAndGlyphs" textLength="92" x="303.5" y="279.0386">origin() : float[3]</text><ellipse cx="294.5" cy="289.5352" fill="#84BE84" rx="3" ry="3" style="stroke: #038048; stroke-width: 1.0;"/><text fill="#000000" font-family="sans-serif" font-size="11" lengthAdjust="spacingAndGlyphs" textLength="86" x="303.5" y="291.8433">volume() : float</text><!--class DirectCell--><rect fill="#FEFECE" filter="url(#fefylkv7urtgt)" height="60.8047" id="DirectCell" style="stroke: #A80036; stroke-width: 1.5;" width="205" x="38.5" y="428.5"/><ellipse cx="107.25" cy="444.5" fill="#ADD1B2" rx="11" ry="11" style="stroke: #A80036; stroke-width: 1.0;"/><path d="M109.5938,440.1719 L109.7656,440.25 C109.9844,439.9375 110.1875,439.8438 110.4844,439.8438 C110.7813,439.8438 111.0625,439.9844 111.2188,440.25 C111.3125,440.4063 111.3281,440.5313 111.3281,440.9688 L111.3281,442.3906 C111.3281,442.8125 111.2969,443 111.1875,443.1563 C111.0156,443.375 110.75,443.5156 110.4844,443.5156 C110.2656,443.5156 110.0313,443.4063 109.8906,443.2656 C109.75,443.1406 109.7188,443.0156 109.6563,442.6094 C109.5625,442.2031 109.3906,441.9844 108.9063,441.7031 C108.4375,441.4531 107.8281,441.2969 107.25,441.2969 C105.5156,441.2969 104.2656,442.6094 104.2656,444.3906 L104.2656,445.4844 C104.2656,447.1875 105.5625,448.2813 107.6094,448.2813 C108.375,448.2813 109.0625,448.1563 109.4844,447.8906 C109.6719,447.7969 109.6719,447.7969 110.125,447.3125 C110.3125,447.125 110.5156,447.0469 110.7344,447.0469 C111.2031,447.0469 111.5938,447.4375 111.5938,447.8906 C111.5938,448.2813 111.2656,448.7344 110.6875,449.1406 C109.9375,449.6875 108.7813,449.9844 107.5625,449.9844 C104.6719,449.9844 102.5625,448.0938 102.5625,445.5156 L102.5625,444.3906 C102.5625,441.6719 104.5625,439.5938 107.1875,439.5938 C108.0625,439.5938 108.6563,439.7344 109.5938,440.1719 Z "/><text fill="#000000" font-family="sans-serif" font-size="12" lengthAdjust="spacingAndGlyphs" textLength="59" x="127.75" y="448.6543">DirectCell</text><line style="stroke: #A80036; stroke-width: 1.5;" x1="39.5" x2="242.5" y1="460.5" y2="460.5"/><line style="stroke: #A80036; stroke-width: 1.5;" x1="39.5" x2="242.5" y1="468.5" y2="468.5"/><ellipse cx="49.5" cy="480.4023" fill="#84BE84" rx="3" ry="3" style="stroke: #038048; stroke-width: 1.0;"/><text fill="#000000" font-family="sans-serif" font-size="11" lengthAdjust="spacingAndGlyphs" textLength="179" x="58.5" y="482.7104">get_reciprocal() : ReciprocalCell</text><!--class ReciprocalCell--><rect fill="#FEFECE" filter="url(#fefylkv7urtgt)" height="60.8047" id="ReciprocalCell" style="stroke: #A80036; stroke-width: 1.5;" width="156" x="279" y="428.5"/><ellipse cx="310.65" cy="444.5" fill="#ADD1B2" rx="11" ry="11" style="stroke: #A80036; stroke-width: 1.0;"/><path d="M312.9938,440.1719 L313.1656,440.25 C313.3844,439.9375 313.5875,439.8438 313.8844,439.8438 C314.1813,439.8438 314.4625,439.9844 314.6188,440.25 C314.7125,440.4063 314.7281,440.5313 314.7281,440.9688 L314.7281,442.3906 C314.7281,442.8125 314.6969,443 314.5875,443.1563 C314.4156,443.375 314.15,443.5156 313.8844,443.5156 C313.6656,443.5156 313.4313,443.4063 313.2906,443.2656 C313.15,443.1406 313.1188,443.0156 313.0563,442.6094 C312.9625,442.2031 312.7906,441.9844 312.3063,441.7031 C311.8375,441.4531 311.2281,441.2969 310.65,441.2969 C308.9156,441.2969 307.6656,442.6094 307.6656,444.3906 L307.6656,445.4844 C307.6656,447.1875 308.9625,448.2813 311.0094,448.2813 C311.775,448.2813 312.4625,448.1563 312.8844,447.8906 C313.0719,447.7969 313.0719,447.7969 313.525,447.3125 C313.7125,447.125 313.9156,447.0469 314.1344,447.0469 C314.6031,447.0469 314.9938,447.4375 314.9938,447.8906 C314.9938,448.2813 314.6656,448.7344 314.0875,449.1406 C313.3375,449.6875 312.1813,449.9844 310.9625,449.9844 C308.0719,449.9844 305.9625,448.0938 305.9625,445.5156 L305.9625,444.3906 C305.9625,441.6719 307.9625,439.5938 310.5875,439.5938 C311.4625,439.5938 312.0563,439.7344 312.9938,440.1719 Z "/><text fill="#000000" font-family="sans-serif" font-size="12" lengthAdjust="spacingAndGlyphs" textLength="87" x="328.35" y="448.6543">ReciprocalCell</text><line style="stroke: #A80036; stroke-width: 1.5;" x1="280" x2="434" y1="460.5" y2="460.5"/><line style="stroke: #A80036; stroke-width: 1.5;" x1="280" x2="434" y1="468.5" y2="468.5"/><ellipse cx="290" cy="480.4023" fill="#84BE84" rx="3" ry="3" style="stroke: #038048; stroke-width: 1.0;"/><text fill="#000000" font-family="sans-serif" font-size="11" lengthAdjust="spacingAndGlyphs" textLength="130" x="299" y="482.7104">get_direct() : DirectCell</text><!--class Coord--><rect fill="#FEFECE" filter="url(#fefylkv7urtgt)" height="214.4609" id="Coord" style="stroke: #A80036; stroke-width: 1.5;" width="168" x="80" y="116"/><ellipse cx="141.25" cy="132" fill="#ADD1B2" rx="11" ry="11" style="stroke: #A80036; stroke-width: 1.0;"/><path d="M143.5938,127.6719 L143.7656,127.75 C143.9844,127.4375 144.1875,127.3438 144.4844,127.3438 C144.7813,127.3438 145.0625,127.4844 145.2188,127.75 C145.3125,127.9063 145.3281,128.0313 145.3281,128.4688 L145.3281,129.8906 C145.3281,130.3125 145.2969,130.5 145.1875,130.6563 C145.0156,130.875 144.75,131.0156 144.4844,131.0156 C144.2656,131.0156 144.0313,130.9063 143.8906,130.7656 C143.75,130.6406 143.7188,130.5156 143.6563,130.1094 C143.5625,129.7031 143.3906,129.4844 142.9063,129.2031 C142.4375,128.9531 141.8281,128.7969 141.25,128.7969 C139.5156,128.7969 138.2656,130.1094 138.2656,131.8906 L138.2656,132.9844 C138.2656,134.6875 139.5625,135.7813 141.6094,135.7813 C142.375,135.7813 143.0625,135.6563 143.4844,135.3906 C143.6719,135.2969 143.6719,135.2969 144.125,134.8125 C144.3125,134.625 144.5156,134.5469 144.7344,134.5469 C145.2031,134.5469 145.5938,134.9375 145.5938,135.3906 C145.5938,135.7813 145.2656,136.2344 144.6875,136.6406 C143.9375,137.1875 142.7813,137.4844 141.5625,137.4844 C138.6719,137.4844 136.5625,135.5938 136.5625,133.0156 L136.5625,131.8906 C136.5625,129.1719 138.5625,127.0938 141.1875,127.0938 C142.0625,127.0938 142.6563,127.2344 143.5938,127.6719 Z "/><text fill="#000000" font-family="sans-serif" font-size="12" lengthAdjust="spacingAndGlyphs" textLength="37" x="161.75" y="136.1543">Coord</text><line style="stroke: #A80036; stroke-width: 1.5;" x1="81" x2="247" y1="148" y2="148"/><polygon fill="none" points="91,154.9023,95,158.9023,91,162.9023,87,158.9023" style="stroke: #B38D22; stroke-width: 1.0;"/><text fill="#000000" font-family="sans-serif" font-size="11" lengthAdjust="spacingAndGlyphs" textLength="91" x="100" y="162.2104">_cell : DirectCell</text><polygon fill="none" points="91,167.707,95,171.707,91,175.707,87,171.707" style="stroke: #B38D22; stroke-width: 1.0;"/><text fill="#000000" font-family="sans-serif" font-size="11" lengthAdjust="spacingAndGlyphs" textLength="82" x="100" y="175.0151">_basis : string</text><line style="stroke: #A80036; stroke-width: 1.5;" x1="81" x2="247" y1="181.6094" y2="181.6094"/><ellipse cx="91" cy="193.5117" fill="#84BE84" rx="3" ry="3" style="stroke: #038048; stroke-width: 1.0;"/><text fill="#000000" font-family="sans-serif" font-size="11" lengthAdjust="spacingAndGlyphs" textLength="142" x="100" y="195.8198">__new__(pos, cell, basis)</text><ellipse cx="91" cy="206.3164" fill="#84BE84" rx="3" ry="3" style="stroke: #038048; stroke-width: 1.0;"/><text fill="#000000" font-family="sans-serif" font-size="11" lengthAdjust="spacingAndGlyphs" textLength="83" x="100" y="208.6245">__add__(other)</text><ellipse cx="91" cy="219.1211" fill="#84BE84" rx="3" ry="3" style="stroke: #038048; stroke-width: 1.0;"/><text fill="#000000" font-family="sans-serif" font-size="11" lengthAdjust="spacingAndGlyphs" textLength="88" x="100" y="221.4292">__mul__(scalar)</text><ellipse cx="91" cy="231.9258" fill="#84BE84" rx="3" ry="3" style="stroke: #038048; stroke-width: 1.0;"/><text fill="#000000" font-family="sans-serif" font-size="11" lengthAdjust="spacingAndGlyphs" textLength="93" x="100" y="234.2339">cell() : DirectCell</text><ellipse cx="91" cy="244.7305" fill="#84BE84" rx="3" ry="3" style="stroke: #038048; stroke-width: 1.0;"/><text fill="#000000" font-family="sans-serif" font-size="11" lengthAdjust="spacingAndGlyphs" textLength="84" x="100" y="247.0386">basis() : string</text><ellipse cx="91" cy="257.5352" fill="#84BE84" rx="3" ry="3" style="stroke: #038048; stroke-width: 1.0;"/><text fill="#000000" font-family="sans-serif" font-size="11" lengthAdjust="spacingAndGlyphs" textLength="93" x="100" y="259.8433">to_cart() : Coord</text><ellipse cx="91" cy="270.3398" fill="#84BE84" rx="3" ry="3" style="stroke: #038048; stroke-width: 1.0;"/><text fill="#000000" font-family="sans-serif" font-size="11" lengthAdjust="spacingAndGlyphs" textLength="95" x="100" y="272.6479">to_crys() : Coord</text><ellipse cx="91" cy="283.1445" fill="#84BE84" rx="3" ry="3" style="stroke: #038048; stroke-width: 1.0;"/><text fill="#000000" font-family="sans-serif" font-size="11" lengthAdjust="spacingAndGlyphs" textLength="133" x="100" y="285.4526">to_basis(basis) : Coord</text><ellipse cx="91" cy="295.9492" fill="#84BE84" rx="3" ry="3" style="stroke: #038048; stroke-width: 1.0;"/><text fill="#000000" font-family="sans-serif" font-size="11" lengthAdjust="spacingAndGlyphs" textLength="117" x="100" y="298.2573">d_mic(other) : Coord</text><ellipse cx="91" cy="308.7539" fill="#84BE84" rx="3" ry="3" style="stroke: #038048; stroke-width: 1.0;"/><text fill="#000000" font-family="sans-serif" font-size="11" lengthAdjust="spacingAndGlyphs" textLength="115" x="100" y="311.062">dd_mic(other) : float</text><ellipse cx="91" cy="321.5586" fill="#84BE84" rx="3" ry="3" style="stroke: #038048; stroke-width: 1.0;"/><text fill="#000000" font-family="sans-serif" font-size="11" lengthAdjust="spacingAndGlyphs" textLength="80" x="100" y="323.8667">length() : float</text><!--class BaseGrid--><rect fill="#FEFECE" filter="url(#fefylkv7urtgt)" height="137.6328" id="BaseGrid" style="stroke: #A80036; stroke-width: 1.5;" width="169" x="510.5" y="390"/><ellipse cx="563.25" cy="406" fill="#A9DCDF" rx="11" ry="11" style="stroke: #A80036; stroke-width: 1.0;"/><path d="M564.8281,407.8125 L560.7813,407.8125 L560.3906,408.7969 L560.7813,408.7969 C561.2344,408.7969 561.375,408.8281 561.5469,408.9531 C561.7656,409.125 561.8906,409.375 561.8906,409.6563 C561.8906,409.9375 561.75,410.2344 561.4844,410.375 C561.3594,410.4688 561.1406,410.5 560.7813,410.5 L558.5156,410.5 C557.7656,410.5 557.3906,410.2188 557.3906,409.6563 C557.3906,409.3594 557.5469,409.0781 557.7969,408.9219 C557.9531,408.8125 558.1094,408.7969 558.5313,408.7969 L561.1719,402.2813 L560.0938,402.2813 C559.6563,402.2813 559.4844,402.25 559.3125,402.1406 C559.0938,401.9688 558.9531,401.7188 558.9531,401.4375 C558.9531,401.1563 559.1094,400.875 559.3594,400.7031 C559.5156,400.6094 559.6406,400.5938 560.0938,400.5938 L563.7656,400.5938 L567.1563,408.7969 C567.625,408.7969 567.7813,408.8281 567.9531,408.9688 C568.1719,409.125 568.3125,409.375 568.3125,409.6563 C568.3125,409.9375 568.1563,410.2344 567.9063,410.375 C567.7656,410.4688 567.5469,410.5 567.1875,410.5 L564.8281,410.5 C564.4063,410.5 564.2031,410.4531 564.0625,410.3281 C563.8438,410.1719 563.7031,409.9219 563.7031,409.6563 C563.7031,409.3594 563.8594,409.0781 564.1094,408.9219 C564.2656,408.8125 564.375,408.7969 564.8281,408.7969 L565.2188,408.7969 Z M564.125,406.1094 L562.7969,402.8438 L561.4531,406.1094 Z "/><text fill="#000000" font-family="sans-serif" font-size="12" font-style="italic" lengthAdjust="spacingAndGlyphs" textLength="55" x="583.75" y="410.1543">BaseGrid</text><line style="stroke: #A80036; stroke-width: 1.5;" x1="511.5" x2="678.5" y1="422" y2="422"/><ellipse cx="521.5" cy="433.9023" fill="none" rx="3" ry="3" style="stroke: #038048; stroke-width: 1.0;"/><text fill="#000000" font-family="sans-serif" font-size="11" lengthAdjust="spacingAndGlyphs" textLength="53" x="530.5" y="436.2104">nr : int[3]</text><ellipse cx="521.5" cy="446.707" fill="none" rx="3" ry="3" style="stroke: #038048; stroke-width: 1.0;"/><text fill="#000000" font-family="sans-serif" font-size="11" lengthAdjust="spacingAndGlyphs" textLength="45" x="530.5" y="449.0151">nnr : int</text><ellipse cx="521.5" cy="459.5117" fill="none" rx="3" ry="3" style="stroke: #038048; stroke-width: 1.0;"/><text fill="#000000" font-family="sans-serif" font-size="11" lengthAdjust="spacingAndGlyphs" textLength="51" x="530.5" y="461.8198">dV : float</text><polygon fill="none" points="521.5,467.3164,525.5,471.3164,521.5,475.3164,517.5,471.3164" style="stroke: #B38D22; stroke-width: 1.0;"/><text fill="#000000" font-family="sans-serif" font-size="11" lengthAdjust="spacingAndGlyphs" textLength="59" x="530.5" y="474.6245">_nr : int[3]</text><polygon fill="none" points="521.5,480.1211,525.5,484.1211,521.5,488.1211,517.5,484.1211" style="stroke: #B38D22; stroke-width: 1.0;"/><text fill="#000000" font-family="sans-serif" font-size="11" lengthAdjust="spacingAndGlyphs" textLength="51" x="530.5" y="487.4292">_nnr : int</text><polygon fill="none" points="521.5,492.9258,525.5,496.9258,521.5,500.9258,517.5,496.9258" style="stroke: #B38D22; stroke-width: 1.0;"/><text fill="#000000" font-family="sans-serif" font-size="11" lengthAdjust="spacingAndGlyphs" textLength="57" x="530.5" y="500.2339">_dV : float</text><line style="stroke: #A80036; stroke-width: 1.5;" x1="511.5" x2="678.5" y1="506.8281" y2="506.8281"/><ellipse cx="521.5" cy="518.7305" fill="#84BE84" rx="3" ry="3" style="stroke: #038048; stroke-width: 1.0;"/><text fill="#000000" font-family="sans-serif" font-size="11" lengthAdjust="spacingAndGlyphs" textLength="143" x="530.5" y="521.0386">__init__(lattice, nr, origin)</text><!--class DirectGrid--><rect fill="#FEFECE" filter="url(#fefylkv7urtgt)" height="112.0234" id="DirectGrid" style="stroke: #A80036; stroke-width: 1.5;" width="208" x="491" y="588"/><ellipse cx="559.75" cy="604" fill="#ADD1B2" rx="11" ry="11" style="stroke: #A80036; stroke-width: 1.0;"/><path d="M562.0938,599.6719 L562.2656,599.75 C562.4844,599.4375 562.6875,599.3438 562.9844,599.3438 C563.2813,599.3438 563.5625,599.4844 563.7188,599.75 C563.8125,599.9063 563.8281,600.0313 563.8281,600.4688 L563.8281,601.8906 C563.8281,602.3125 563.7969,602.5 563.6875,602.6563 C563.5156,602.875 563.25,603.0156 562.9844,603.0156 C562.7656,603.0156 562.5313,602.9063 562.3906,602.7656 C562.25,602.6406 562.2188,602.5156 562.1563,602.1094 C562.0625,601.7031 561.8906,601.4844 561.4063,601.2031 C560.9375,600.9531 560.3281,600.7969 559.75,600.7969 C558.0156,600.7969 556.7656,602.1094 556.7656,603.8906 L556.7656,604.9844 C556.7656,606.6875 558.0625,607.7813 560.1094,607.7813 C560.875,607.7813 561.5625,607.6563 561.9844,607.3906 C562.1719,607.2969 562.1719,607.2969 562.625,606.8125 C562.8125,606.625 563.0156,606.5469 563.2344,606.5469 C563.7031,606.5469 564.0938,606.9375 564.0938,607.3906 C564.0938,607.7813 563.7656,608.2344 563.1875,608.6406 C562.4375,609.1875 561.2813,609.4844 560.0625,609.4844 C557.1719,609.4844 555.0625,607.5938 555.0625,605.0156 L555.0625,603.8906 C555.0625,601.1719 557.0625,599.0938 559.6875,599.0938 C560.5625,599.0938 561.1563,599.2344 562.0938,599.6719 Z "/><text fill="#000000" font-family="sans-serif" font-size="12" lengthAdjust="spacingAndGlyphs" textLength="62" x="580.25" y="608.1543">DirectGrid</text><line style="stroke: #A80036; stroke-width: 1.5;" x1="492" x2="698" y1="620" y2="620"/><polygon fill="none" points="502,626.9023,506,630.9023,502,634.9023,498,630.9023" style="stroke: #B38D22; stroke-width: 1.0;"/><text fill="#000000" font-family="sans-serif" font-size="11" lengthAdjust="spacingAndGlyphs" textLength="89" x="511" y="634.2104">_r : float[*nr, 3]</text><polygon fill="none" points="502,639.707,506,643.707,502,647.707,498,643.707" style="stroke: #B38D22; stroke-width: 1.0;"/><text fill="#000000" font-family="sans-serif" font-size="11" lengthAdjust="spacingAndGlyphs" textLength="91" x="511" y="647.0151">_s : float[*nr, 3]</text><line style="stroke: #A80036; stroke-width: 1.5;" x1="492" x2="698" y1="653.6094" y2="653.6094"/><ellipse cx="502" cy="665.5117" fill="#84BE84" rx="3" ry="3" style="stroke: #038048; stroke-width: 1.0;"/><text fill="#000000" font-family="sans-serif" font-size="11" lengthAdjust="spacingAndGlyphs" textLength="91" x="511" y="667.8198">r() : float[*nr, 3]</text><ellipse cx="502" cy="678.3164" fill="#84BE84" rx="3" ry="3" style="stroke: #038048; stroke-width: 1.0;"/><text fill="#000000" font-family="sans-serif" font-size="11" lengthAdjust="spacingAndGlyphs" textLength="93" x="511" y="680.6245">s() : float[*nr, 3]</text><ellipse cx="502" cy="691.1211" fill="#84BE84" rx="3" ry="3" style="stroke: #038048; stroke-width: 1.0;"/><text fill="#000000" font-family="sans-serif" font-size="11" lengthAdjust="spacingAndGlyphs" textLength="182" x="511" y="693.4292">get_reciprocal() : ReciprocalGrid</text><!--class ReciprocalGrid--><rect fill="#FEFECE" filter="url(#fefylkv7urtgt)" height="112.0234" id="ReciprocalGrid" style="stroke: #A80036; stroke-width: 1.5;" width="159" x="734.5" y="588"/><ellipse cx="766.15" cy="604" fill="#ADD1B2" rx="11" ry="11" style="stroke: #A80036; stroke-width: 1.0;"/><path d="M768.4938,599.6719 L768.6656,599.75 C768.8844,599.4375 769.0875,599.3438 769.3844,599.3438 C769.6813,599.3438 769.9625,599.4844 770.1188,599.75 C770.2125,599.9063 770.2281,600.0313 770.2281,600.4688 L770.2281,601.8906 C770.2281,602.3125 770.1969,602.5 770.0875,602.6563 C769.9156,602.875 769.65,603.0156 769.3844,603.0156 C769.1656,603.0156 768.9313,602.9063 768.7906,602.7656 C768.65,602.6406 768.6188,602.5156 768.5563,602.1094 C768.4625,601.7031 768.2906,601.4844 767.8063,601.2031 C767.3375,600.9531 766.7281,600.7969 766.15,600.7969 C764.4156,600.7969 763.1656,602.1094 763.1656,603.8906 L763.1656,604.9844 C763.1656,606.6875 764.4625,607.7813 766.5094,607.7813 C767.275,607.7813 767.9625,607.6563 768.3844,607.3906 C768.5719,607.2969 768.5719,607.2969 769.025,606.8125 C769.2125,606.625 769.4156,606.5469 769.6344,606.5469 C770.1031,606.5469 770.4938,606.9375 770.4938,607.3906 C770.4938,607.7813 770.1656,608.2344 769.5875,608.6406 C768.8375,609.1875 767.6813,609.4844 766.4625,609.4844 C763.5719,609.4844 761.4625,607.5938 761.4625,605.0156 L761.4625,603.8906 C761.4625,601.1719 763.4625,599.0938 766.0875,599.0938 C766.9625,599.0938 767.5563,599.2344 768.4938,599.6719 Z "/><text fill="#000000" font-family="sans-serif" font-size="12" lengthAdjust="spacingAndGlyphs" textLength="90" x="783.85" y="608.1543">ReciprocalGrid</text><line style="stroke: #A80036; stroke-width: 1.5;" x1="735.5" x2="892.5" y1="620" y2="620"/><polygon fill="none" points="745.5,626.9023,749.5,630.9023,745.5,634.9023,741.5,630.9023" style="stroke: #B38D22; stroke-width: 1.0;"/><text fill="#000000" font-family="sans-serif" font-size="11" lengthAdjust="spacingAndGlyphs" textLength="91" x="754.5" y="634.2104">_g : float[*nr, 3]</text><polygon fill="none" points="745.5,639.707,749.5,643.707,745.5,647.707,741.5,643.707" style="stroke: #B38D22; stroke-width: 1.0;"/><text fill="#000000" font-family="sans-serif" font-size="11" lengthAdjust="spacingAndGlyphs" textLength="83" x="754.5" y="647.0151">_gg : float[*nr]</text><line style="stroke: #A80036; stroke-width: 1.5;" x1="735.5" x2="892.5" y1="653.6094" y2="653.6094"/><ellipse cx="745.5" cy="665.5117" fill="#84BE84" rx="3" ry="3" style="stroke: #038048; stroke-width: 1.0;"/><text fill="#000000" font-family="sans-serif" font-size="11" lengthAdjust="spacingAndGlyphs" textLength="93" x="754.5" y="667.8198">g() : float[*nr, 3]</text><ellipse cx="745.5" cy="678.3164" fill="#84BE84" rx="3" ry="3" style="stroke: #038048; stroke-width: 1.0;"/><text fill="#000000" font-family="sans-serif" font-size="11" lengthAdjust="spacingAndGlyphs" textLength="85" x="754.5" y="680.6245">gg() : float[*nr]</text><ellipse cx="745.5" cy="691.1211" fill="#84BE84" rx="3" ry="3" style="stroke: #038048; stroke-width: 1.0;"/><text fill="#000000" font-family="sans-serif" font-size="11" lengthAdjust="spacingAndGlyphs" textLength="133" x="754.5" y="693.4292">get_direct() : DirectGrid</text><!--class BaseField--><rect fill="#FEFECE" filter="url(#fefylkv7urtgt)" height="112.0234" id="BaseField" style="stroke: #A80036; stroke-width: 1.5;" width="341" x="776.5" y="775"/><ellipse cx="913.25" cy="791" fill="#A9DCDF" rx="11" ry="11" style="stroke: #A80036; stroke-width: 1.0;"/><path d="M914.8281,792.8125 L910.7813,792.8125 L910.3906,793.7969 L910.7813,793.7969 C911.2344,793.7969 911.375,793.8281 911.5469,793.9531 C911.7656,794.125 911.8906,794.375 911.8906,794.6563 C911.8906,794.9375 911.75,795.2344 911.4844,795.375 C911.3594,795.4688 911.1406,795.5 910.7813,795.5 L908.5156,795.5 C907.7656,795.5 907.3906,795.2188 907.3906,794.6563 C907.3906,794.3594 907.5469,794.0781 907.7969,793.9219 C907.9531,793.8125 908.1094,793.7969 908.5313,793.7969 L911.1719,787.2813 L910.0938,787.2813 C909.6563,787.2813 909.4844,787.25 909.3125,787.1406 C909.0938,786.9688 908.9531,786.7188 908.9531,786.4375 C908.9531,786.1563 909.1094,785.875 909.3594,785.7031 C909.5156,785.6094 909.6406,785.5938 910.0938,785.5938 L913.7656,785.5938 L917.1563,793.7969 C917.625,793.7969 917.7813,793.8281 917.9531,793.9688 C918.1719,794.125 918.3125,794.375 918.3125,794.6563 C918.3125,794.9375 918.1563,795.2344 917.9063,795.375 C917.7656,795.4688 917.5469,795.5 917.1875,795.5 L914.8281,795.5 C914.4063,795.5 914.2031,795.4531 914.0625,795.3281 C913.8438,795.1719 913.7031,794.9219 913.7031,794.6563 C913.7031,794.3594 913.8594,794.0781 914.1094,793.9219 C914.2656,793.8125 914.375,793.7969 914.8281,793.7969 L915.2188,793.7969 Z M914.125,791.1094 L912.7969,787.8438 L911.4531,791.1094 Z "/><text fill="#000000" font-family="sans-serif" font-size="12" font-style="italic" lengthAdjust="spacingAndGlyphs" textLength="59" x="933.75" y="795.1543">BaseField</text><line style="stroke: #A80036; stroke-width: 1.5;" x1="777.5" x2="1116.5" y1="807" y2="807"/><ellipse cx="787.5" cy="818.9023" fill="none" rx="3" ry="3" style="stroke: #038048; stroke-width: 1.0;"/><text fill="#000000" font-family="sans-serif" font-size="11" lengthAdjust="spacingAndGlyphs" textLength="58" x="796.5" y="821.2104">grid : Grid</text><ellipse cx="787.5" cy="831.707" fill="none" rx="3" ry="3" style="stroke: #038048; stroke-width: 1.0;"/><text fill="#000000" font-family="sans-serif" font-size="11" lengthAdjust="spacingAndGlyphs" textLength="54" x="796.5" y="834.0151">span : int</text><ellipse cx="787.5" cy="844.5117" fill="none" rx="3" ry="3" style="stroke: #038048; stroke-width: 1.0;"/><text fill="#000000" font-family="sans-serif" font-size="11" lengthAdjust="spacingAndGlyphs" textLength="51" x="796.5" y="846.8198">rank : int</text><line style="stroke: #A80036; stroke-width: 1.5;" x1="777.5" x2="1116.5" y1="853.4141" y2="853.4141"/><ellipse cx="787.5" cy="865.3164" fill="#84BE84" rx="3" ry="3" style="stroke: #038048; stroke-width: 1.0;"/><text fill="#000000" font-family="sans-serif" font-size="11" lengthAdjust="spacingAndGlyphs" textLength="315" x="796.5" y="867.6245">__init__(grid, rank, griddata_F, griddata_C, griddata_3d)</text><ellipse cx="787.5" cy="878.1211" fill="#84BE84" rx="3" ry="3" style="stroke: #038048; stroke-width: 1.0;"/><text fill="#000000" font-family="sans-serif" font-size="11" lengthAdjust="spacingAndGlyphs" textLength="88" x="796.5" y="880.4292">integral() : float</text><!--class DirectField--><rect fill="#FEFECE" filter="url(#fefylkv7urtgt)" height="112.0234" id="DirectField" style="stroke: #A80036; stroke-width: 1.5;" width="302" x="716" y="947"/><ellipse cx="829.75" cy="963" fill="#ADD1B2" rx="11" ry="11" style="stroke: #A80036; stroke-width: 1.0;"/><path d="M832.0938,958.6719 L832.2656,958.75 C832.4844,958.4375 832.6875,958.3438 832.9844,958.3438 C833.2813,958.3438 833.5625,958.4844 833.7188,958.75 C833.8125,958.9063 833.8281,959.0313 833.8281,959.4688 L833.8281,960.8906 C833.8281,961.3125 833.7969,961.5 833.6875,961.6563 C833.5156,961.875 833.25,962.0156 832.9844,962.0156 C832.7656,962.0156 832.5313,961.9063 832.3906,961.7656 C832.25,961.6406 832.2188,961.5156 832.1563,961.1094 C832.0625,960.7031 831.8906,960.4844 831.4063,960.2031 C830.9375,959.9531 830.3281,959.7969 829.75,959.7969 C828.0156,959.7969 826.7656,961.1094 826.7656,962.8906 L826.7656,963.9844 C826.7656,965.6875 828.0625,966.7813 830.1094,966.7813 C830.875,966.7813 831.5625,966.6563 831.9844,966.3906 C832.1719,966.2969 832.1719,966.2969 832.625,965.8125 C832.8125,965.625 833.0156,965.5469 833.2344,965.5469 C833.7031,965.5469 834.0938,965.9375 834.0938,966.3906 C834.0938,966.7813 833.7656,967.2344 833.1875,967.6406 C832.4375,968.1875 831.2813,968.4844 830.0625,968.4844 C827.1719,968.4844 825.0625,966.5938 825.0625,964.0156 L825.0625,962.8906 C825.0625,960.1719 827.0625,958.0938 829.6875,958.0938 C830.5625,958.0938 831.1563,958.2344 832.0938,958.6719 Z "/><text fill="#000000" font-family="sans-serif" font-size="12" lengthAdjust="spacingAndGlyphs" textLength="66" x="850.25" y="967.1543">DirectField</text><line style="stroke: #A80036; stroke-width: 1.5;" x1="717" x2="1017" y1="979" y2="979"/><line style="stroke: #A80036; stroke-width: 1.5;" x1="717" x2="1017" y1="987" y2="987"/><ellipse cx="727" cy="998.9023" fill="#84BE84" rx="3" ry="3" style="stroke: #038048; stroke-width: 1.0;"/><text fill="#000000" font-family="sans-serif" font-size="11" lengthAdjust="spacingAndGlyphs" textLength="126" x="736" y="1001.2104">gradient() : DirectField</text><ellipse cx="727" cy="1011.707" fill="#84BE84" rx="3" ry="3" style="stroke: #038048; stroke-width: 1.0;"/><text fill="#000000" font-family="sans-serif" font-size="11" lengthAdjust="spacingAndGlyphs" textLength="114" x="736" y="1014.0151">sigma() : DirectField</text><ellipse cx="727" cy="1024.5117" fill="#84BE84" rx="3" ry="3" style="stroke: #038048; stroke-width: 1.0;"/><text fill="#000000" font-family="sans-serif" font-size="11" lengthAdjust="spacingAndGlyphs" textLength="116" x="736" y="1026.8198">fft() : ReciprocalField</text><ellipse cx="727" cy="1037.3164" fill="#84BE84" rx="3" ry="3" style="stroke: #038048; stroke-width: 1.0;"/><text fill="#000000" font-family="sans-serif" font-size="11" lengthAdjust="spacingAndGlyphs" textLength="200" x="736" y="1039.6245">get_3dinterpolation(nr) : DirectField</text><ellipse cx="727" cy="1050.1211" fill="#84BE84" rx="3" ry="3" style="stroke: #038048; stroke-width: 1.0;"/><text fill="#000000" font-family="sans-serif" font-size="11" lengthAdjust="spacingAndGlyphs" textLength="276" x="736" y="1052.4292">get_cut(r0, r1, r2, origin, center, nr) : DirectField</text><!--class ReciprocalField--><rect fill="#FEFECE" filter="url(#fefylkv7urtgt)" height="60.8047" id="ReciprocalField" style="stroke: #A80036; stroke-width: 1.5;" width="126" x="1053" y="972.5"/><ellipse cx="1068" cy="988.5" fill="#ADD1B2" rx="11" ry="11" style="stroke: #A80036; stroke-width: 1.0;"/><path d="M1070.3438,984.1719 L1070.5156,984.25 C1070.7344,983.9375 1070.9375,983.8438 1071.2344,983.8438 C1071.5313,983.8438 1071.8125,983.9844 1071.9688,984.25 C1072.0625,984.4063 1072.0781,984.5313 1072.0781,984.9688 L1072.0781,986.3906 C1072.0781,986.8125 1072.0469,987 1071.9375,987.1563 C1071.7656,987.375 1071.5,987.5156 1071.2344,987.5156 C1071.0156,987.5156 1070.7813,987.4063 1070.6406,987.2656 C1070.5,987.1406 1070.4688,987.0156 1070.4063,986.6094 C1070.3125,986.2031 1070.1406,985.9844 1069.6563,985.7031 C1069.1875,985.4531 1068.5781,985.2969 1068,985.2969 C1066.2656,985.2969 1065.0156,986.6094 1065.0156,988.3906 L1065.0156,989.4844 C1065.0156,991.1875 1066.3125,992.2813 1068.3594,992.2813 C1069.125,992.2813 1069.8125,992.1563 1070.2344,991.8906 C1070.4219,991.7969 1070.4219,991.7969 1070.875,991.3125 C1071.0625,991.125 1071.2656,991.0469 1071.4844,991.0469 C1071.9531,991.0469 1072.3438,991.4375 1072.3438,991.8906 C1072.3438,992.2813 1072.0156,992.7344 1071.4375,993.1406 C1070.6875,993.6875 1069.5313,993.9844 1068.3125,993.9844 C1065.4219,993.9844 1063.3125,992.0938 1063.3125,989.5156 L1063.3125,988.3906 C1063.3125,985.6719 1065.3125,983.5938 1067.9375,983.5938 C1068.8125,983.5938 1069.4063,983.7344 1070.3438,984.1719 Z "/><text fill="#000000" font-family="sans-serif" font-size="12" lengthAdjust="spacingAndGlyphs" textLength="94" x="1082" y="992.6543">ReciprocalField</text><line style="stroke: #A80036; stroke-width: 1.5;" x1="1054" x2="1178" y1="1004.5" y2="1004.5"/><line style="stroke: #A80036; stroke-width: 1.5;" x1="1054" x2="1178" y1="1012.5" y2="1012.5"/><ellipse cx="1064" cy="1024.4023" fill="#84BE84" rx="3" ry="3" style="stroke: #038048; stroke-width: 1.0;"/><text fill="#000000" font-family="sans-serif" font-size="11" lengthAdjust="spacingAndGlyphs" textLength="94" x="1073" y="1026.7104">ifft() : DirectField</text><!--class NumpyArray--><rect fill="#FEFECE" filter="url(#fefylkv7urtgt)" height="48" id="NumpyArray" style="stroke: #A80036; stroke-width: 1.5;" width="106" x="502" y="8"/><ellipse cx="517" cy="24" fill="#ADD1B2" rx="11" ry="11" style="stroke: #A80036; stroke-width: 1.0;"/><path d="M519.3438,19.6719 L519.5156,19.75 C519.7344,19.4375 519.9375,19.3438 520.2344,19.3438 C520.5313,19.3438 520.8125,19.4844 520.9688,19.75 C521.0625,19.9063 521.0781,20.0313 521.0781,20.4688 L521.0781,21.8906 C521.0781,22.3125 521.0469,22.5 520.9375,22.6563 C520.7656,22.875 520.5,23.0156 520.2344,23.0156 C520.0156,23.0156 519.7813,22.9063 519.6406,22.7656 C519.5,22.6406 519.4688,22.5156 519.4063,22.1094 C519.3125,21.7031 519.1406,21.4844 518.6563,21.2031 C518.1875,20.9531 517.5781,20.7969 517,20.7969 C515.2656,20.7969 514.0156,22.1094 514.0156,23.8906 L514.0156,24.9844 C514.0156,26.6875 515.3125,27.7813 517.3594,27.7813 C518.125,27.7813 518.8125,27.6563 519.2344,27.3906 C519.4219,27.2969 519.4219,27.2969 519.875,26.8125 C520.0625,26.625 520.2656,26.5469 520.4844,26.5469 C520.9531,26.5469 521.3438,26.9375 521.3438,27.3906 C521.3438,27.7813 521.0156,28.2344 520.4375,28.6406 C519.6875,29.1875 518.5313,29.4844 517.3125,29.4844 C514.4219,29.4844 512.3125,27.5938 512.3125,25.0156 L512.3125,23.8906 C512.3125,21.1719 514.3125,19.0938 516.9375,19.0938 C517.8125,19.0938 518.4063,19.2344 519.3438,19.6719 Z "/><text fill="#000000" font-family="sans-serif" font-size="12" lengthAdjust="spacingAndGlyphs" textLength="74" x="531" y="28.1543">NumpyArray</text><line style="stroke: #A80036; stroke-width: 1.5;" x1="503" x2="607" y1="40" y2="40"/><line style="stroke: #A80036; stroke-width: 1.5;" x1="503" x2="607" y1="48" y2="48"/><!--link BaseCell to DirectCell--><path d="M280.18,313.341 C275.073,319.005 269.981,324.598 265,330 C233.331,364.348 195.88,402.709 170.486,428.399 " fill="none" id="BaseCell-DirectCell" style="stroke: #A80036; stroke-width: 1.0;"/><polygon fill="none" points="275.12,308.498,293.673,298.262,285.553,317.834,275.12,308.498" style="stroke: #A80036; stroke-width: 1.0;"/><!--link BaseCell to ReciprocalCell--><path d="M357.597,318.243 C357.429,357.696 357.245,400.739 357.126,428.482 " fill="none" id="BaseCell-ReciprocalCell" style="stroke: #A80036; stroke-width: 1.0;"/><polygon fill="none" points="350.598,318.009,357.684,298.039,364.598,318.069,350.598,318.009" style="stroke: #A80036; stroke-width: 1.0;"/><!--link NumpyArray to Coord--><path d="M481.626,36.44 C408.121,41.06 301.017,51.34 266,73 C248.271,83.97 232.871,99.292 219.785,115.969 " fill="none" id="NumpyArray-Coord" style="stroke: #A80036; stroke-width: 1.0;"/><polygon fill="none" points="481.469,29.44,501.843,35.26,482.286,43.41,481.469,29.44" style="stroke: #A80036; stroke-width: 1.0;"/><!--link BaseCell to BaseGrid--><path d="M446.936,311.811 C473.072,337.615 501.256,365.443 525.95,389.824 " fill="none" id="BaseCell-BaseGrid" style="stroke: #A80036; stroke-width: 1.0;"/><polygon fill="none" points="441.977,316.751,432.663,297.718,451.813,306.788,441.977,316.751" style="stroke: #A80036; stroke-width: 1.0;"/><!--link BaseGrid to DirectGrid--><path d="M595,548.384 C595,561.867 595,575.44 595,587.931 " fill="none" id="BaseGrid-DirectGrid" style="stroke: #A80036; stroke-width: 1.0;"/><polygon fill="none" points="588,548.142,595,528.142,602,548.142,588,548.142" style="stroke: #A80036; stroke-width: 1.0;"/><!--link BaseGrid to ReciprocalGrid--><path d="M691.963,541.024 C710.939,556.881 730.424,573.163 748.098,587.931 " fill="none" id="BaseGrid-ReciprocalGrid" style="stroke: #A80036; stroke-width: 1.0;"/><polygon fill="none" points="687.406,546.338,676.548,528.142,696.383,535.595,687.406,546.338" style="stroke: #A80036; stroke-width: 1.0;"/><!--link DirectCell to DirectGrid--><path d="M205.97,499.692 C223.501,509.601 242.692,519.746 261,528 C335.916,561.777 423.916,591.702 490.776,612.553 " fill="none" id="DirectCell-DirectGrid" style="stroke: #A80036; stroke-width: 1.0;"/><polygon fill="none" points="202.219,505.609,188.408,489.538,209.226,493.489,202.219,505.609" style="stroke: #A80036; stroke-width: 1.0;"/><!--link ReciprocalCell to ReciprocalGrid--><path d="M418.714,499.877 C436.39,510.094 456.022,520.345 475,528 C577.367,569.29 613.4,547.292 716,588 C722.075,590.41 728.239,593.132 734.363,596.041 " fill="none" id="ReciprocalCell-ReciprocalGrid" style="stroke: #A80036; stroke-width: 1.0;"/><polygon fill="none" points="415.029,505.83,401.451,489.562,422.21,493.812,415.029,505.83" style="stroke: #A80036; stroke-width: 1.0;"/><!--link NumpyArray to BaseField--><path d="M615.636,66.17 C698.644,115.294 844.782,215.87 910,347 C980.128,488 967.462,681.144 955.601,774.713 " fill="none" id="NumpyArray-BaseField" style="stroke: #A80036; stroke-width: 1.0;"/><polygon fill="none" points="611.985,72.15,598.194,56.06,619.007,60.04,611.985,72.15" style="stroke: #A80036; stroke-width: 1.0;"/><!--link BaseField to DirectField--><path d="M912.349,905.633 C905.85,919.443 899.16,933.661 892.98,946.792 " fill="none" id="BaseField-DirectField" style="stroke: #A80036; stroke-width: 1.0;"/><polygon fill="none" points="906.177,902.31,921.026,887.194,918.844,908.271,906.177,902.31" style="stroke: #A80036; stroke-width: 1.0;"/><!--link BaseField to ReciprocalField--><path d="M1016.06,901.47 C1040.63,926.183 1067,952.71 1086.48,972.306 " fill="none" id="BaseField-ReciprocalField" style="stroke: #A80036; stroke-width: 1.0;"/><polygon fill="none" points="1011.01,906.313,1001.869,887.194,1020.93,896.443,1011.01,906.313" style="stroke: #A80036; stroke-width: 1.0;"/><!--
@startuml
class NumpyArray{

}

package "pbcpy.base" #EEEEEE {

Abstract BaseCell{
  + __init__(lattice, origin)
  + __eq__(other)
  + lattice() : float[3,3]
  + origin() : float[3]
  + volume() : float
  # _lattice : float[3,3]
  # _volume : float
  # _origin : float[3]
}

Class DirectCell{
  + get_reciprocal() : ReciprocalCell
}

Class ReciprocalCell{
  + get_direct() : DirectCell
}

Class Coord{
  + __new__(pos, cell, basis)
  + __add__(other)
  + __mul__(scalar)
  + cell() : DirectCell
  + basis() : string
  + to_cart() : Coord
  + to_crys() : Coord
  + to_basis(basis) : Coord
  + d_mic(other) : Coord
  + dd_mic(other) : float
  + length() : float
  # _cell : DirectCell
  # _basis : string
}

}


package "pbcpy.grid" #EEEEEE {

Abstract BaseGrid{
  + __init__(lattice, nr, origin)
  + nr : int[3]
  + nnr : int
  + dV : float
  # _nr : int[3]
  # _nnr : int
  # _dV : float
}

Class DirectGrid{
  # _r : float[*nr, 3]
  # _s : float[*nr, 3]
  + r() : float[*nr, 3]
  + s() : float[*nr, 3]
  + get_reciprocal() : ReciprocalGrid
}

Class ReciprocalGrid{
  # _g : float[*nr, 3]
  # _gg : float[*nr]
  + g() : float[*nr, 3]
  + gg() : float[*nr]
  + get_direct() : DirectGrid
}

}


package "pbcpy.field" #EEEEEE {

Abstract BaseField{
  + __init__(grid, rank, griddata_F, griddata_C, griddata_3d)
  + grid : Grid
  + span : int
  + rank : int
  + integral() : float
}

Class DirectField{
  + gradient() : DirectField
  + sigma() : DirectField
  + fft() : ReciprocalField
  + get_3dinterpolation(nr) : DirectField
  + get_cut(r0, r1, r2, origin, center, nr) : DirectField
}

Class ReciprocalField{
  + ifft() : DirectField
}

}

BaseCell <|- - DirectCell
BaseCell <|- - ReciprocalCell

NumpyArray <|- - Coord

BaseCell <|- - BaseGrid
BaseGrid <|- - DirectGrid
BaseGrid <|- - ReciprocalGrid

DirectCell <|- - DirectGrid
ReciprocalCell <|- - ReciprocalGrid

NumpyArray <|- - - - - BaseField

BaseField <|- - DirectField
BaseField <|- - ReciprocalField
@enduml

PlantUML version 1.2018.03(Thu Apr 05 16:59:15 UTC 2018)
(GPL source distribution)
Java Runtime: Java(TM) SE Runtime Environment
JVM: Java HotSpot(TM) 64-Bit Server VM
Java Version: 1.7.0_25-b15
Operating System: Linux
Default Encoding: UTF-8
Language: en
Country: US
--></g></svg>